<?xml version="1.0" encoding="UTF-8" standalone="no"?>
<!DOCTYPE svg PUBLIC "-//W3C//DTD SVG 1.1//EN" "http://www.w3.org/Graphics/SVG/1.1/DTD/svg11.dtd">
<svg xmlns="http://www.w3.org/2000/svg" width="12px" height="8px"><path fill-rule="evenodd" fill="#c6a47e" d="M0.038,4.720 L6.164,4.710 C6.558,4.710 6.878,4.392 6.878,3.999 L6.878,2.016 L9.967,3.999 L5.777,6.688 C5.445,6.901 5.349,7.342 5.563,7.673 C5.777,8.004 6.219,8.099 6.551,7.886 L11.673,4.597 C11.877,4.466 12.000,4.241 12.000,3.999 C12.000,3.756 11.877,3.531 11.673,3.400 L6.551,0.112 C6.331,-0.030 6.051,-0.040 5.822,0.085 C5.592,0.210 5.449,0.449 5.449,0.710 L5.449,3.286 L0.000,3.286 "></path></svg>